<svg data-v-fde0c5aa="" xmlns="http://www.w3.org/2000/svg" viewBox="0 0 300 300" class="iconLeft" style="height: 222px; width: 222px;">
	<defs data-v-fde0c5aa=""></defs>
	<rect data-v-fde0c5aa="" fill="#636ecb" x="0" y="0" width="100px" height="100px" class="logo-background-square" style="height: 100%; width: 100%;"></rect>
	<defs data-v-fde0c5aa=""></defs>
	<g data-v-fde0c5aa="" id="249dd8d0-a773-43df-a4bd-f8d12a2210d7" fill="#ECEBE7"><path d=""></path></g>
	<defs data-v-fde0c5aa=""></defs>
	<g data-v-fde0c5aa="" id="4299a226-f90b-432e-beb7-e9bb4644ae4e" stroke="none" fill="#ECEBE7" style="transform: scale(2) translate(20px, 22px);">
		<path d="M67.058 25.458c-.962-.723 5.502-10.942 5.502-10.942a2.179 2.179 0 0 1 3.482 2.619c-.001-.001-8.023 9.045-8.984 8.323zM60.898 20.968c-1.193-.145-.706-12.226-.706-12.226a2.177 2.177 0 1 1 4.324.527c.001 0-2.423 11.844-3.618 11.699zM53.538 23.534c-1.107.471-6.725-10.236-6.725-10.236a2.177 2.177 0 1 1 4.008-1.706c.001 0 3.825 11.471 2.717 11.942z"></path>
		<path d="M51.863 91.396a78.48 78.48 0 0 1 7.757-5.562c4.278-2.694 8.628-4.875 12.877-6.531 4.09-7.503 2.167-16.488-1.985-23.222.959-6.834 1.804-11.92 9.634-15.086 2.904-1.174 3.575-3.746 2.099-6.239-1.411-2.381-6.128-2.854-9.062-1.602-3.615 1.544-6.27 3.445-8.432 5.665v-.002l-.023.026c-.146.152-.292.305-.436.459-.76.739-2.405 2.072-4.457 2.147-1.801.066-3.374-1.265-3.938-1.807-8.401-9.757-18.151-18.881-25.788-24.125-2.532-1.739-6.129-1.322-8.033.93-1.905 2.253-1.396 5.49 1.137 7.229 5.905 4.055 12.518 11.115 18.578 18.899a58.615 58.615 0 0 0-1.604-1.11c-2.696-1.798-6.287-2.222-8.685-.095-2.397 2.128-2.396 5.621.002 7.8a61.353 61.353 0 0 1 1.926 1.834c-1.393-.821-3.512-.96-5.005-.862-1.436.096-2.833.643-3.907 1.638-2.346 2.174-2.261 5.667.189 7.8.491.428 1.003.87 1.533 1.321-1.244-.414-2.671-.471-3.854-.294-1.413.21-2.744.865-3.711 1.939-2.121 2.354-1.223 5.312.955 7.765 1.64 1.847 3.179 3.52 4.666 5.037l-.04.032c9.117 9.116 17.47 16.344 27.607 16.016z"></path>
	</g>
</svg>
